<svg width="125" height="40" viewBox="0 0 125 40" fill="none" xmlns="http://www.w3.org/2000/svg">
<g clip-path="url(#clip0_22_69)">
<path d="M38.2 14.4V12.9C38.2 12.7 38.4 12.5 38.6 12.5H45.3C45.5 12.5 45.7 12.7 45.7 12.9V14.2C45.7 14.4 45.5 14.7 45.2 15.1L41.7 20.1C43 20.1 44.4 20.3 45.5 20.9C45.8 21 45.8 21.3 45.9 21.5V23.1C45.9 23.3 45.7 23.6 45.4 23.4C43.3 22.3 40.6 22.2 38.3 23.4C38.1 23.5 37.8 23.3 37.8 23.1V21.6C37.8 21.4 37.8 20.9 38.1 20.6L42.1 14.8H38.6C38.4 14.8 38.2 14.6 38.2 14.4ZM13.7 23.7H11.7C11.5 23.7 11.4 23.5 11.3 23.4V12.9C11.3 12.7 11.5 12.5 11.7 12.5H13.6C13.8 12.5 14 12.7 14 12.9V14.3C14.5 13 15.4 12.4 16.7 12.4C18 12.4 18.8 13 19.4 14.3C19.9 13 21 12.4 22.2 12.4C23.1 12.4 24 12.8 24.6 13.5C25.2 14.4 25.1 15.7 25.1 16.8V23.4C25.1 23.6 24.9 23.8 24.7 23.8H22.7C22.5 23.8 22.3 23.6 22.3 23.4V17.9C22.3 17.5 22.3 16.4 22.2 15.9C22 15.2 21.6 15 21 15C20.5 15 20 15.3 19.8 15.9C19.6 16.4 19.6 17.3 19.6 17.9V23.4C19.6 23.6 19.4 23.8 19.2 23.8H17.2C17 23.8 16.8 23.6 16.8 23.4V17.9C16.8 16.7 17 15 15.5 15C14 15 14.1 16.7 14.1 17.9V23.4C14.1 23.6 13.9 23.7 13.7 23.7ZM51.5 12.3C54.5 12.3 56.2 14.9 56.2 18.2C56.2 21.4 54.4 23.9 51.5 23.9C48.5 23.9 46.9 21.3 46.9 18.1C46.9 14.8 48.5 12.3 51.5 12.3ZM51.5 14.5C50 14.5 49.9 16.5 49.9 17.8C49.9 19.1 49.9 21.8 51.5 21.8C53.1 21.8 53.2 19.6 53.2 18.3C53.2 17.4 53.2 16.4 52.9 15.5C52.6 14.7 52.1 14.5 51.5 14.5ZM60.1 23.7H58.1C57.9 23.7 57.7 23.5 57.7 23.3V12.8C57.7 12.6 57.9 12.5 58.1 12.5H60C60.2 12.5 60.3 12.6 60.4 12.8V14.4C61 13 61.8 12.3 63.2 12.3C64.1 12.3 65 12.6 65.6 13.5C66.1 14.3 66.1 15.7 66.1 16.8V23.4C66.1 23.6 65.9 23.7 65.7 23.7H63.7C63.5 23.7 63.4 23.5 63.3 23.4V17.7C63.3 16.6 63.4 14.9 62 14.9C61.5 14.9 61 15.2 60.8 15.7C60.5 16.3 60.5 17 60.5 17.7V23.3C60.5 23.6 60.3 23.7 60.1 23.7ZM34.9 23.7C34.8 23.8 34.6 23.8 34.4 23.7C33.7 23.1 33.6 22.9 33.2 22.3C32.1 23.4 31.3 23.8 29.8 23.8C28.1 23.8 26.7 22.7 26.7 20.6C26.7 18.9 27.6 17.8 28.9 17.3C30 16.8 31.6 16.7 32.7 16.6V16.3C32.7 15.8 32.7 15.2 32.5 14.8C32.3 14.4 31.8 14.3 31.4 14.3C30.6 14.3 29.9 14.7 29.8 15.5C29.8 15.7 29.6 15.9 29.4 15.9L27.4 15.7C27.2 15.7 27 15.5 27.1 15.3C27.6 12.9 29.7 12.2 31.7 12.2C32.7 12.2 34 12.5 34.8 13.2C35.8 14.1 35.7 15.4 35.7 16.7V19.9C35.7 20.9 36.1 21.3 36.5 21.8C36.6 22 36.7 22.2 36.5 22.3C36 22.7 35.3 23.3 34.9 23.7ZM32.8 18.7V18.3C31.3 18.3 29.8 18.6 29.8 20.4C29.8 21.3 30.3 21.9 31 21.9C31.6 21.9 32.1 21.5 32.4 21C32.8 20.2 32.8 19.5 32.8 18.7ZM8.10003 23.7C8.00002 23.8 7.80002 23.8 7.60002 23.7C6.90002 23.1 6.80002 22.9 6.40002 22.3C5.30002 23.4 4.50002 23.8 3.00002 23.8C1.30002 23.8 -0.0999756 22.7 -0.0999756 20.6C-0.0999756 18.9 0.800024 17.8 2.10002 17.3C3.20002 16.8 4.80002 16.7 5.90002 16.6V16.3C5.90002 15.8 5.90002 15.2 5.70002 14.8C5.50002 14.4 5.00002 14.3 4.60002 14.3C3.80002 14.3 3.10002 14.7 3.00002 15.5C3.00002 15.7 2.80002 15.9 2.60002 15.9L0.600024 15.7C0.400024 15.7 0.200024 15.5 0.300024 15.3C0.800024 12.9 2.90002 12.2 4.90002 12.2C5.90002 12.2 7.20002 12.5 8.00002 13.2C9.00002 14.1 8.90002 15.4 8.90002 16.7V19.9C8.90002 20.9 9.30002 21.3 9.70002 21.8C9.80002 22 9.90002 22.2 9.70002 22.3C9.20002 22.7 8.50002 23.3 8.10003 23.7ZM6.00002 18.7V18.3C4.50002 18.3 3.00002 18.6 3.00002 20.4C3.00002 21.3 3.50002 21.9 4.20002 21.9C4.80002 21.9 5.30002 21.5 5.60002 21C6.00002 20.2 6.00002 19.5 6.00002 18.7ZM41 27.7C37.2 30.5 31.6 32 26.8 32C20.1 32 14 29.5 9.50002 25.4C9.10003 25.1 9.50002 24.6 9.90002 24.9C14.8 27.8 20.9 29.5 27.2 29.5C31.5 29.5 36.1 28.6 40.4 26.8C41.1 26.6 41.6 27.3 41 27.7ZM42.6 25.9C42.1 25.3 39.4 25.6 38.1 25.8C37.7 25.8 37.7 25.5 38 25.3C40.2 23.8 43.8 24.2 44.2 24.7C44.6 25.2 44.1 28.8 42 30.5C41.7 30.8 41.4 30.6 41.5 30.3C42 29.1 43 26.6 42.6 25.9ZM107.7 21.9C108.1 21.6 108.3 21.2 108.3 20.7C108.3 20.3 108.2 20.1 108 19.8C107.8 19.6 107.4 19.4 106.8 19.1L104.9 18.4C103.3 17.8 102.4 16.8 102.4 15.3C102.4 14.3 102.8 13.6 103.5 13C104.2 12.4 105.2 12.1 106.4 12.1C107.4 12.1 108.3 12.3 109.2 12.6C109.4 12.7 109.5 12.7 109.6 12.8C109.7 12.9 109.7 13 109.7 13.2V14C109.7 14.3 109.6 14.4 109.4 14.4C109.3 14.4 109.1 14.4 108.9 14.3C108.1 14.1 107.3 13.9 106.5 13.9C105.1 13.9 104.4 14.4 104.4 15.3C104.4 15.7 104.5 16 104.8 16.2C105 16.4 105.5 16.7 106.2 16.9L107.9 17.6C108.8 17.9 109.4 18.3 109.8 18.8C110.2 19.3 110.4 19.9 110.4 20.6C110.4 21.6 110 22.5 109.2 23.1C108.4 23.7 107.4 24 106.1 24C104.9 24 103.8 23.8 102.8 23.4C102.6 23.3 102.5 23.2 102.4 23.2C102.3 23.1 102.3 23 102.3 22.8V22.2C102.3 21.9 102.4 21.8 102.6 21.8C102.7 21.8 102.9 21.8 103.2 21.9C104.2 22.2 105.2 22.4 106.2 22.4C106.7 22.4 107.3 22.2 107.7 21.9ZM97.9 13C97.9 12.7 98 12.6 98.3 12.6H99.6C99.9 12.6 100 12.7 100 13V23.3C100 23.6 99.9 23.7 99.6 23.7H98.7C98.6 23.7 98.4 23.7 98.4 23.6C98.3 23.5 98.3 23.4 98.2 23.3L98 22.5C96.6 23.5 95.2 24 93.8 24C92.8 24 92 23.7 91.4 23.1C90.8 22.5 90.6 21.7 90.6 20.6V13C90.6 12.7 90.7 12.6 91 12.6H92.3C92.6 12.6 92.7 12.7 92.7 13V20C92.7 20.8 92.9 21.4 93.2 21.7C93.5 22.1 94 22.3 94.7 22.3C95.8 22.3 96.8 21.9 97.9 21.2V13ZM86.1 23.7C85.8 23.7 85.7 23.6 85.7 23.3V16.2C85.7 15.5 85.6 14.9 85.3 14.6C85 14.2 84.6 14.1 84 14.1C82.9 14.1 81.8 14.4 80.8 15.1C80.8 15.2 80.8 15.3 80.8 15.4V23.4C80.8 23.7 80.7 23.8 80.4 23.8H79.1C78.8 23.8 78.7 23.7 78.7 23.4V16.3C78.7 15.6 78.6 15 78.3 14.7C78 14.3 77.6 14.2 77 14.2C75.9 14.2 74.8 14.5 73.8 15.2V23.5C73.8 23.8 73.7 23.9 73.4 23.9H72.1C71.8 23.9 71.7 23.8 71.7 23.5V13C71.7 12.7 71.8 12.6 72.1 12.6H73.1C73.2 12.6 73.4 12.6 73.4 12.7C73.5 12.8 73.5 12.9 73.6 13L73.7 13.7C75.1 12.7 76.5 12.2 77.8 12.2C79.2 12.2 80.1 12.7 80.6 13.8C82.1 12.8 83.5 12.2 85 12.2C86 12.2 86.8 12.5 87.3 13.1C87.8 13.7 88.1 14.5 88.1 15.5V23.3C88.1 23.6 88 23.7 87.7 23.7H86.1ZM119.8 15C119.3 15.6 119 16.6 119 18V18.3C119 19.6 119.3 20.6 119.8 21.2C120.4 21.8 121.2 22.1 122.4 22.1C123 22.1 123.7 22 124.4 21.8C124.6 21.8 124.7 21.7 124.7 21.7C124.9 21.7 125 21.8 125 22.1V22.7C125 22.9 125 23 124.9 23.1C124.8 23.2 124.7 23.3 124.5 23.3C123.8 23.6 122.9 23.8 122 23.8C120.3 23.8 118.9 23.3 118 22.3C117.1 21.3 116.6 19.9 116.6 18C116.6 16.1 117.1 14.7 118 13.7C118.9 12.7 120.3 12.2 122 12.2C122.8 12.2 123.6 12.3 124.3 12.6C124.5 12.7 124.6 12.7 124.6 12.8C124.7 12.9 124.7 13 124.7 13.2V14C124.7 14.3 124.6 14.4 124.4 14.4C124.3 14.4 124.2 14.4 124 14.3C123.4 14.1 122.8 14 122.2 14C121.2 14.1 120.3 14.4 119.8 15ZM113.9 12.6C114.2 12.6 114.3 12.7 114.3 13V23.3C114.3 23.6 114.2 23.7 113.9 23.7H112.6C112.3 23.7 112.2 23.6 112.2 23.3V13C112.2 12.7 112.3 12.6 112.6 12.6H113.9ZM114.3 8.3C114.5 8.5 114.7 8.9 114.7 9.3C114.7 9.7 114.6 10 114.3 10.3C114.1 10.5 113.7 10.7 113.3 10.7C112.9 10.7 112.5 10.6 112.3 10.3C112.1 10.1 111.9 9.7 111.9 9.3C111.9 8.9 112 8.6 112.3 8.3C112.5 8.1 112.9 7.9 113.3 7.9C113.7 7.9 114.1 8 114.3 8.3Z" fill="#5BAFFF"/>
</g>
<defs>
<clipPath id="clip0_22_69">
<rect width="125" height="40" fill="white"/>
</clipPath>
</defs>
</svg>
