<svg width="125" height="40" viewBox="0 0 125 40" fill="none" xmlns="http://www.w3.org/2000/svg">
<path d="M41.958 7.83701V17.845L41.961 17.975C41.302 16.957 39.769 15.289 36.792 15.289C33.804 15.289 29.196 17.485 29.196 23.713C29.196 29.941 33.642 32.164 37.017 32.164C39.319 32.164 41.204 30.924 42.192 29.499V31.759H46.44V7.83701H41.958ZM37.827 28.464C35.426 28.464 33.48 26.361 33.48 23.766C33.48 21.171 35.426 19.068 37.827 19.068C40.228 19.068 42.174 21.171 42.174 23.766C42.174 26.361 40.228 28.464 37.827 28.464Z" fill="#5BAFFF"/>
<path d="M59.976 25.656C59.976 25.656 59.328 28.464 56.196 28.464C53.149 28.464 51.976 26.317 51.915 24.576H62.856C63.864 21.228 62.208 15.252 55.548 15.252C52.344 15.252 47.592 17.592 47.592 23.676C47.592 29.76 52.452 32.136 55.98 32.136C59.832 32.136 62.748 30.156 63.648 27.132L59.976 25.656ZM55.62 18.745C58.068 18.745 58.932 20.473 58.896 21.625H51.879C51.949 20.752 53.239 18.745 55.62 18.745Z" fill="#5BAFFF"/>
<path d="M76.176 25.656C76.176 25.656 75.528 28.464 72.396 28.464C69.349 28.464 68.176 26.317 68.115 24.576H79.056C80.064 21.228 78.408 15.252 71.748 15.252C68.544 15.252 63.792 17.592 63.792 23.676C63.792 29.76 68.652 32.136 72.18 32.136C76.032 32.136 78.948 30.156 79.848 27.132L76.176 25.656ZM71.82 18.745C74.268 18.745 75.132 20.473 75.096 21.625H68.079C68.149 20.752 69.439 18.745 71.82 18.745Z" fill="#5BAFFF"/>
<path d="M107.243 25.656C107.243 25.656 106.595 28.464 103.463 28.464C100.416 28.464 99.243 26.317 99.182 24.576H110.123C111.131 21.228 109.475 15.252 102.815 15.252C99.611 15.252 94.859 17.592 94.859 23.676C94.859 29.76 99.719 32.136 103.247 32.136C107.099 32.136 110.015 30.156 110.915 27.132L107.243 25.656ZM102.887 18.745C105.335 18.745 106.199 20.473 106.163 21.625H99.146C99.216 20.752 100.507 18.745 102.887 18.745Z" fill="#5BAFFF"/>
<path d="M80.28 15.649V19.357H88.92L80.028 28.068V31.776H94.679V27.888H85.464L94.427 19.213V15.649H80.28Z" fill="#5BAFFF"/>
<path d="M120.347 15.253C118.29 15.253 116.953 16.715 116.459 17.746V15.649H112.067V31.777H116.459V21.3C116.459 20.04 117.467 18.744 118.763 18.744C120.059 18.744 120.995 19.5 120.815 21.624H124.883C125.351 19.213 124.523 15.253 120.347 15.253Z" fill="#5BAFFF"/>
<path d="M24.732 28.68H19.332V31.758H24.732V28.68Z" fill="#5BAFFF"/>
<path d="M5.4 28.68H0V31.758H5.4V28.68Z" fill="#5BAFFF"/>
<path d="M18.252 28.68H12.906V31.758H18.252V28.68Z" fill="#5BAFFF"/>
<path d="M11.826 28.68H6.47998V31.758H11.826V28.68Z" fill="#5BAFFF"/>
<path d="M24.732 24.306H19.332V27.384H24.732V24.306Z" fill="#5BAFFF"/>
<path d="M11.826 24.306H6.47998V27.384H11.826V24.306Z" fill="#5BAFFF"/>
<path d="M11.826 19.933H6.47998V23.011H11.826V19.933Z" fill="#5BAFFF"/>
<path d="M18.252 24.306H12.906V27.384H18.252V24.306Z" fill="#5BAFFF"/>
<path d="M24.732 19.933H19.332V23.002H24.732V19.933Z" fill="#5BAFFF"/>
<path d="M24.732 15.667H19.332V18.745H24.732V15.667Z" fill="#5BAFFF"/>
</svg>
