<svg width="125" height="40" viewBox="0 0 125 40" fill="none" xmlns="http://www.w3.org/2000/svg">
<path d="M82.6 15.1C85.3 15.1 87.5 17.3 87.5 20C87.5 22.7 85.3 24.9 82.6 24.9C79.9 24.9 77.7 22.7 77.7 20C77.7 17.3 79.9 15.1 82.6 15.1ZM82.6 11.9C78.1 11.9 74.5 15.5 74.5 20C74.5 24.5 78.1 28.1 82.6 28.1C87.1 28.1 90.7 24.5 90.7 20C90.7 15.5 87 11.9 82.6 11.9Z" fill="#5BAFFF"/>
<path d="M32.3 12.4V13.7C28.8 10.9 23.7 11.4 20.9 14.9C18.1 18.4 18.6 23.5 22.1 26.3C25.1 28.7 29.4 28.7 32.3 26.3V27.6H35.3V12.4H32.3ZM27.4 25C24.6 25 22.4 22.7 22.4 20C22.4 17.3 24.7 15 27.4 15C30.2 15 32.4 17.3 32.4 20C32.4 22.8 30.2 25 27.4 25Z" fill="#5BAFFF"/>
<path d="M114.8 12.4V13.7C111.3 10.9 106.2 11.4 103.4 14.9C100.6 18.4 101.1 23.5 104.6 26.3C107.6 28.7 111.9 28.7 114.8 26.3V27.6H117.8V12.4H114.8ZM109.9 25C107.1 25 104.9 22.7 104.9 20C104.9 17.3 107.2 15 109.9 15C112.7 15 114.9 17.3 114.9 20C114.9 22.8 112.7 25 109.9 25Z" fill="#5BAFFF"/>
<path d="M96 13.4C94.3 14.5 92.8 16.5 92.8 20V27.7H96V20C96 15 101.2 15.2 101.2 15.2V12C101.2 11.9 98.4 11.8 96 13.4Z" fill="#5BAFFF"/>
<path d="M50.7001 13.5C47.1 10.8 42.0001 11.5 39.4001 15.1C38.3001 16.5 37.8 18.2 37.8 20V27.6H41V20C41 17.3 43.2001 15.1 45.9001 15.1C48.6001 15.1 50.8 17.3 50.8 20V27.6H54V20C53.9 17.5 52.7001 15.1 50.7001 13.5Z" fill="#5BAFFF"/>
<path d="M70.8 7.5C70 7.5 69.3 8.2 69.3 9V13.7C65.8 10.9 60.7 11.4 57.9 14.9C55.1 18.4 55.6 23.5 59.1 26.3C62.1 28.7 66.4 28.7 69.3 26.3V27.6H72.3V7.5H70.8ZM64.4 25C61.6 25 59.4 22.7 59.4 20C59.4 17.2 61.7 15 64.4 15C67.2 15 69.4 17.3 69.4 20C69.4 22.8 67.2 25 64.4 25Z" fill="#5BAFFF"/>
<path d="M9.1 11.9C7.2 11.9 5.4 12.5 4 13.7V12.4H1V32.5H2.5C3.3 32.5 4 31.8 4 31V26.3C7.5 29.1 12.6 28.6 15.4 25.1C18.2 21.6 17.7 16.5 14.2 13.7C12.8 12.5 11 11.9 9.1 11.9ZM8.9 25C6.1 25 3.9 22.7 3.9 20C3.9 17.3 6.2 15 8.9 15C11.6 15 13.9 17.3 13.9 20C14 22.8 11.7 25 8.9 25Z" fill="#5BAFFF"/>
<path d="M122.2 13.2C120.6 13.2 119.4 11.9 119.4 10.4C119.4 8.90001 120.7 7.60001 122.2 7.60001C123.8 7.60001 125 8.90001 125 10.4C125 11.9 123.7 13.2 122.2 13.2ZM122.2 7.90001C120.8 7.90001 119.7 9.00001 119.7 10.4C119.7 11.8 120.8 12.9 122.2 12.9C123.6 12.9 124.7 11.8 124.7 10.4C124.7 9.00001 123.6 7.90001 122.2 7.90001ZM123 12L122.2 10.7H121.6V12H121.2V8.80001H122.5C123 8.80001 123.5 9.20001 123.5 9.70001C123.5 9.70001 123.5 9.70001 123.5 9.80001C123.5 10.3 123.2 10.7 122.7 10.8L123.6 12.1L123 12ZM122.4 9.10001H121.5V10.3H122.4C122.7 10.3 123 10 123 9.70001C123 9.40001 122.7 9.10001 122.4 9.10001Z" fill="#5BAFFF"/>
</svg>
