<svg width="125" height="38" viewBox="0 0 125 38" fill="none" xmlns="http://www.w3.org/2000/svg">
<path d="M27.3359 27.285C27.6739 26.736 27.4979 26.018 26.9489 25.68C22.0109 22.662 15.8889 21.96 8.75193 23.592C8.12293 23.735 7.73093 24.361 7.87293 24.99C8.01693 25.618 8.64393 26.013 9.27193 25.868C15.7929 24.379 21.3319 24.986 25.7309 27.675C26.2809 28.011 26.9999 27.838 27.3359 27.285Z" fill="white"/>
<path d="M32.227 16.26C32.72 15.429 32.446 14.353 31.615 13.859C24.663 9.73201 13.66 9.34301 7.04302 11.353C6.11702 11.634 5.59602 12.613 5.87502 13.539C6.15502 14.465 7.13502 14.987 8.06002 14.707C13.827 12.957 23.787 13.287 29.827 16.873C30.657 17.367 31.735 17.093 32.227 16.26Z" fill="white"/>
<path d="M29.156 20.178C23.372 16.624 14.91 15.624 8.10696 17.689C7.33496 17.924 6.89896 18.738 7.12996 19.511C7.36396 20.281 8.17996 20.717 8.95196 20.484C14.908 18.676 22.594 19.573 27.628 22.667C28.315 23.089 29.063 22.874 29.644 22.186C30.225 21.498 29.843 20.6 29.156 20.178Z" fill="white"/>
<path d="M18.604 0.266007C8.14497 0.265007 -0.0610352 8.65301 -0.0610352 18.999C-0.0610352 29.347 8.36197 37.735 18.709 37.735C29.057 37.735 37.391 29.348 37.391 18.999C37.391 8.65401 29.063 0.266007 18.604 0.266007ZM9.27197 25.868C8.64396 26.013 8.01696 25.619 7.87296 24.99C7.73096 24.362 8.12296 23.735 8.75196 23.592C15.889 21.96 22.01 22.662 26.949 25.68C27.499 26.018 27.675 26.736 27.336 27.286L27.337 27.285C27.001 27.837 26.281 28.01 25.732 27.674C21.332 24.985 15.793 24.379 9.27197 25.868ZM29.644 22.186C29.063 22.873 28.314 23.088 27.627 22.666C22.593 19.572 14.911 18.675 8.95496 20.483C8.18296 20.716 7.36397 20.281 7.12996 19.51C6.89796 18.737 7.33196 17.923 8.10396 17.688C14.908 15.624 23.373 16.623 29.157 20.177C29.843 20.6 30.225 21.499 29.644 22.186ZM29.827 16.873C23.788 13.287 13.827 12.957 8.05997 14.707C7.13496 14.987 6.15496 14.465 5.87496 13.539C5.59496 12.613 6.11696 11.634 7.04296 11.353C13.66 9.34301 24.663 9.73201 31.615 13.859C32.447 14.353 32.72 15.429 32.227 16.26C31.735 17.093 30.657 17.367 29.827 16.873Z" fill="#5BAFFF"/>
<path d="M51.101 17.561C47.868 16.789 47.291 16.248 47.291 15.11C47.291 14.035 48.304 13.312 49.809 13.312C51.267 13.312 52.713 13.862 54.23 14.992C54.276 15.026 54.334 15.04 54.39 15.031C54.447 15.022 54.495 14.991 54.53 14.944L56.109 12.718C56.173 12.626 56.157 12.499 56.069 12.43C54.264 10.982 52.232 10.277 49.857 10.277C46.364 10.277 43.924 12.374 43.924 15.372C43.924 18.588 46.029 19.727 49.666 20.606C52.762 21.319 53.283 21.917 53.283 22.984C53.283 24.167 52.226 24.903 50.527 24.903C48.638 24.903 47.099 24.267 45.377 22.775C45.334 22.738 45.276 22.721 45.221 22.724C45.165 22.729 45.112 22.755 45.076 22.799L43.306 24.907C43.232 24.994 43.242 25.125 43.326 25.2C45.331 26.99 47.796 27.935 50.456 27.935C54.22 27.935 56.652 25.878 56.652 22.696C56.658 20.009 55.05 18.521 51.111 17.563L51.101 17.561Z" fill="#5BAFFF"/>
<path d="M65.165 14.37C63.533 14.37 62.1949 15.012 61.0929 16.33V14.848C61.0929 14.731 60.997 14.636 60.88 14.636H57.984C57.867 14.636 57.7729 14.731 57.7729 14.848V31.314C57.7729 31.431 57.867 31.526 57.984 31.526H60.88C60.997 31.526 61.0929 31.43 61.0929 31.314V26.117C62.1959 27.355 63.535 27.96 65.165 27.96C68.196 27.96 71.2649 25.626 71.2649 21.166C71.2699 16.705 68.1999 14.37 65.1679 14.37H65.165ZM67.896 21.166C67.896 23.437 66.4959 25.023 64.4919 25.023C62.5119 25.023 61.019 23.365 61.019 21.166C61.019 18.967 62.5119 17.31 64.4919 17.31C66.4649 17.309 67.896 18.931 67.896 21.166Z" fill="#5BAFFF"/>
<path d="M79.129 14.37C75.225 14.37 72.167 17.376 72.167 21.214C72.167 25.01 75.204 27.985 79.082 27.985C82.999 27.985 86.067 24.989 86.067 21.166C86.067 17.355 83.02 14.371 79.13 14.371V14.37H79.129ZM79.129 25.044C77.053 25.044 75.487 23.376 75.487 21.164C75.487 18.942 76.999 17.331 79.081 17.331C81.171 17.331 82.747 18.999 82.747 21.213C82.747 23.434 81.226 25.044 79.129 25.044Z" fill="#5BAFFF"/>
<path d="M94.403 14.635H91.215V11.376C91.215 11.259 91.12 11.164 91.004 11.164H88.108C87.99 11.164 87.895 11.259 87.895 11.376V14.635H86.503C86.386 14.635 86.292 14.73 86.292 14.847V17.336C86.292 17.453 86.386 17.548 86.503 17.548H87.895V23.99C87.895 26.593 89.191 27.912 91.746 27.912C92.785 27.912 93.646 27.697 94.459 27.237C94.525 27.2 94.566 27.129 94.566 27.053V24.683C94.566 24.61 94.529 24.54 94.466 24.502C94.403 24.462 94.323 24.46 94.259 24.492C93.702 24.773 93.162 24.902 92.559 24.902C91.629 24.902 91.215 24.48 91.215 23.535V17.55H94.403C94.519 17.55 94.614 17.455 94.614 17.338V14.849C94.619 14.731 94.525 14.636 94.406 14.636L94.403 14.635Z" fill="#5BAFFF"/>
<path d="M105.507 14.648V14.248C105.507 13.071 105.959 12.546 106.972 12.546C107.576 12.546 108.061 12.666 108.604 12.846C108.671 12.867 108.741 12.857 108.795 12.817C108.851 12.777 108.882 12.713 108.882 12.645V10.205C108.882 10.111 108.821 10.029 108.732 10.001C108.159 9.831 107.424 9.655 106.325 9.655C103.65 9.655 102.236 11.161 102.236 14.01V14.623H100.844C100.728 14.623 100.632 14.719 100.632 14.836V17.338C100.632 17.455 100.728 17.55 100.844 17.55H102.236V27.486C102.236 27.603 102.33 27.698 102.447 27.698H105.343C105.46 27.698 105.556 27.603 105.556 27.486V17.55H108.26L112.403 27.483C111.932 28.527 111.471 28.734 110.84 28.734C110.329 28.734 109.791 28.582 109.242 28.282C109.189 28.253 109.129 28.248 109.073 28.266C109.017 28.285 108.971 28.326 108.948 28.38L107.966 30.533C107.919 30.635 107.958 30.754 108.057 30.807C109.081 31.362 110.007 31.599 111.151 31.599C113.289 31.599 114.47 30.603 115.513 27.923L120.538 14.939C120.562 14.873 120.556 14.8 120.515 14.742C120.475 14.684 120.411 14.65 120.342 14.65H117.325C117.235 14.65 117.155 14.707 117.125 14.792L114.036 23.614L110.653 14.785C110.622 14.703 110.541 14.649 110.455 14.649H105.506V14.648H105.507Z" fill="#5BAFFF"/>
<path d="M99.0699 14.635H96.1739C96.0569 14.635 95.9609 14.73 95.9609 14.847V27.484C95.9609 27.601 96.0569 27.696 96.1739 27.696H99.0699C99.1859 27.696 99.2819 27.601 99.2819 27.484V14.849C99.2819 14.732 99.1879 14.636 99.0699 14.635Z" fill="#5BAFFF"/>
<path d="M97.637 8.88101C96.489 8.88101 95.559 9.81001 95.559 10.958C95.559 12.106 96.49 13.036 97.637 13.036C98.784 13.036 99.714 12.106 99.714 10.958C99.714 9.81001 98.785 8.88101 97.637 8.88101Z" fill="#5BAFFF"/>
<path d="M123.012 18.698C121.865 18.698 120.974 17.777 120.974 16.659C120.974 15.541 121.878 14.61 123.023 14.61C124.17 14.61 125.061 15.531 125.061 16.648C125.061 17.766 124.157 18.698 123.012 18.698ZM123.023 14.813C121.978 14.813 121.189 15.643 121.189 16.659C121.189 17.675 121.972 18.494 123.012 18.494C124.055 18.494 124.847 17.665 124.847 16.648C124.848 15.632 124.061 14.813 123.023 14.813ZM123.475 16.858L124.051 17.665H123.565L123.045 16.925H122.599V17.665H122.193V15.526H123.146C123.643 15.526 123.971 15.78 123.971 16.208C123.972 16.559 123.769 16.773 123.476 16.858H123.475ZM123.131 15.893H122.599V16.57H123.131C123.396 16.57 123.553 16.44 123.553 16.231C123.552 16.01 123.394 15.893 123.131 15.893Z" fill="#5BAFFF"/>
</svg>
