<svg width="125" height="40" viewBox="0 0 125 40" fill="none" xmlns="http://www.w3.org/2000/svg">
<g clip-path="url(#clip0_22_18)">
<path fill-rule="evenodd" clip-rule="evenodd" d="M68.682 27.699C68.686 27.613 68.695 27.527 68.695 27.441C68.695 22.499 68.695 17.557 68.695 12.617C68.695 12.524 68.695 12.431 68.695 12.325C68.767 12.317 68.821 12.307 68.876 12.307C70.824 12.308 72.776 12.29 74.727 12.316C76.18 12.335 77.58 12.639 78.886 13.301C80.942 14.345 82.188 16.005 82.604 18.275C82.857 19.652 82.82 21.024 82.407 22.368C81.808 24.33 80.55 25.75 78.744 26.691C77.753 27.207 76.696 27.504 75.584 27.619C75.407 27.637 75.231 27.671 75.055 27.698C72.932 27.699 70.806 27.699 68.682 27.699ZM72.117 24.648C72.185 24.653 72.227 24.658 72.27 24.658C72.992 24.658 73.714 24.665 74.437 24.656C74.938 24.649 75.433 24.584 75.914 24.443C77.502 23.975 78.546 22.96 78.978 21.351C79.203 20.516 79.227 19.665 79.041 18.82C78.747 17.477 77.996 16.473 76.768 15.842C76.062 15.478 75.301 15.316 74.513 15.304C73.768 15.292 73.023 15.301 72.28 15.303C72.225 15.303 72.169 15.314 72.116 15.319C72.117 18.433 72.117 21.531 72.117 24.648Z" fill="#5BAFFF"/>
<path fill-rule="evenodd" clip-rule="evenodd" d="M89.7521 27.699C89.7701 27.631 89.7821 27.558 89.8091 27.494C91.8871 22.495 93.9661 17.496 96.0471 12.497C96.0721 12.438 96.0991 12.38 96.1311 12.316C97.3391 12.316 98.5431 12.316 99.7571 12.316C99.8551 12.551 99.9501 12.783 100.047 13.018C102.028 17.823 104.007 22.629 105.985 27.435C106.02 27.518 106.033 27.612 106.054 27.7C104.783 27.7 103.512 27.7 102.24 27.7C102.225 27.667 102.207 27.636 102.196 27.601C101.862 26.701 101.531 25.802 101.195 24.903C101.163 24.816 101.127 24.731 101.097 24.651C98.9291 24.651 96.7791 24.651 94.6261 24.651C94.2411 25.675 93.8631 26.688 93.4801 27.7C92.2391 27.699 90.9951 27.699 89.7521 27.699ZM100.162 21.896C99.4011 19.901 98.6491 17.933 97.8891 15.942C97.6971 16.303 95.6261 21.735 95.6201 21.896C97.1211 21.896 98.6191 21.896 100.162 21.896Z" fill="#5BAFFF"/>
<path fill-rule="evenodd" clip-rule="evenodd" d="M30.5301 12.308C32.9641 12.307 35.4001 12.307 37.8351 12.306C39.4831 12.306 41.1291 12.306 42.7781 12.306C42.8631 12.306 42.9501 12.306 43.0301 12.306C43.0801 12.469 43.0981 14.917 43.0531 15.292C41.5691 15.292 40.0851 15.292 38.5701 15.292C38.5661 15.395 38.5621 15.478 38.5621 15.561C38.5621 16.638 38.5621 17.715 38.5621 18.791C38.5621 21.659 38.5621 24.528 38.5611 27.396C38.5611 27.497 38.5541 27.598 38.5501 27.699C37.3921 27.699 36.2361 27.699 35.0811 27.699C35.0791 27.598 35.0731 27.497 35.0731 27.396C35.0731 23.463 35.0731 19.53 35.0731 15.596C35.0731 15.504 35.0731 15.413 35.0731 15.299C33.5411 15.299 32.0341 15.299 30.5291 15.299C30.5301 14.303 30.5301 13.305 30.5301 12.308Z" fill="#5BAFFF"/>
<path fill-rule="evenodd" clip-rule="evenodd" d="M115.419 27.699C115.422 27.62 115.426 27.541 115.426 27.461C115.426 22.513 115.426 17.564 115.426 12.616C115.426 12.523 115.426 12.43 115.426 12.342C115.602 12.296 118.678 12.288 118.938 12.333C118.938 16.421 118.938 20.512 118.938 24.616C119.023 24.621 119.087 24.629 119.149 24.629C121.049 24.63 122.949 24.629 124.85 24.629C124.9 24.629 124.95 24.623 125.001 24.62C125.001 25.646 125.001 26.672 125.001 27.698C121.806 27.699 118.612 27.699 115.419 27.699Z" fill="#5BAFFF"/>
<path fill-rule="evenodd" clip-rule="evenodd" d="M53.5081 27.699C53.5081 22.579 53.5081 17.459 53.5081 12.344C53.6741 12.298 56.6921 12.284 57.0091 12.327C57.0141 12.378 57.0231 12.434 57.0231 12.489C57.0241 17.523 57.0241 22.557 57.0241 27.59C57.0241 27.626 57.0211 27.662 57.0201 27.698C55.8501 27.699 54.6791 27.699 53.5081 27.699Z" fill="#5BAFFF"/>
<path fill-rule="evenodd" clip-rule="evenodd" d="M20.956 11.641C21.002 11.694 21.046 11.751 21.095 11.801C22.377 13.084 23.661 14.366 24.942 15.647C24.998 15.703 25.063 15.75 25.101 15.781C23.691 17.19 22.301 18.582 20.887 19.994C19.53 18.637 18.139 17.246 16.744 15.852C15.345 17.251 13.958 18.639 12.551 20.046C11.145 18.639 9.753 17.249 8.348 15.843C6.951 17.24 5.563 18.628 4.195 19.995C2.794 18.594 1.404 17.203 0 15.799C0.025 15.774 0.076 15.717 0.129 15.661C1.417 14.374 2.703 13.087 3.991 11.8C4.042 11.749 4.086 11.695 4.135 11.641C4.148 11.641 4.162 11.641 4.178 11.641C4.199 11.668 4.216 11.7 4.242 11.724C5.572 13.056 6.904 14.387 8.236 15.719C8.269 15.752 8.311 15.781 8.353 15.817C8.403 15.771 8.447 15.733 8.487 15.693C9.787 14.393 11.089 13.092 12.389 11.791C12.432 11.747 12.464 11.692 12.503 11.642C12.517 11.642 12.532 11.642 12.545 11.642C13.938 13.034 15.328 14.427 16.729 15.83C16.796 15.769 16.848 15.723 16.898 15.672C18.204 14.366 19.513 13.06 20.818 11.754C20.852 11.72 20.883 11.679 20.914 11.642C20.927 11.641 20.942 11.641 20.956 11.641Z" fill="#5BAFFF"/>
<path fill-rule="evenodd" clip-rule="evenodd" d="M8.41602 24.216C9.77802 22.854 11.171 21.462 12.549 20.083C13.919 21.455 15.312 22.848 16.691 24.227C15.317 25.602 13.928 26.99 12.559 28.358C11.186 26.983 9.79202 25.591 8.41602 24.216Z" fill="#5BAFFF"/>
</g>
<defs>
<clipPath id="clip0_22_18">
<rect width="125" height="40" fill="white"/>
</clipPath>
</defs>
</svg>
